<svg id="SvgjsSvg1021" xmlns="http://www.w3.org/2000/svg" version="1.1" xmlns:xlink="http://www.w3.org/1999/xlink" xmlns:svgjs="http://svgjs.com/svgjs" width="67" height="89" viewBox="0 0 67 89"><title>Shape 1</title><desc>Created with Avocode.</desc><defs id="SvgjsDefs1022"><linearGradient id="SvgjsLinearGradient1025" gradientUnits="userSpaceOnUse" x1="961.933715414055" y1="988" x2="961.9337154140551" y2="927.0005279182062"><stop id="SvgjsStop1026" stop-opacity="1" stop-color="#f15f00" offset="0"></stop><stop id="SvgjsStop1027" stop-opacity="1" stop-color="#ff0e0c" offset="1"></stop></linearGradient></defs><path id="SvgjsPath1023" d="M988.955 956H930.0450000000001C927.8140000000001 956 926.0000000000001 957.824 926.0000000000001 960.066V1000.95C926.0000000000001 1003.19 927.8140000000001 1005.0200000000001 930.0450000000001 1005.0200000000001H950.2310000000001V1007.9800000000001C950.2310000000001 1010.6900000000002 948.0360000000001 1012.8900000000001 945.3380000000001 1012.8900000000001H940.8890000000001C940.0360000000002 1012.8900000000001 939.3450000000001 1013.5900000000001 939.3450000000001 1014.45C939.3450000000001 1015.3000000000001 940.0360000000002 1016 940.8890000000001 1016H978.1100000000001C978.9630000000001 1016 979.6550000000001 1015.3 979.6550000000001 1014.45C979.6550000000001 1013.59 978.9630000000001 1012.8900000000001 978.1100000000001 1012.8900000000001H973.6610000000002C970.9630000000002 1012.8900000000001 968.7680000000001 1010.69 968.7680000000001 1007.9800000000001V1005.0200000000001H988.9550000000002C991.1850000000002 1005.0200000000001 993.0000000000001 1003.19 993.0000000000001 1000.95V960.066C993.0000000000001 957.8240000000001 991.1850000000001 956 988.9550000000002 956ZM951.638 1012.89C952.691 1011.54 953.32 1009.83 953.32 1007.98V1005.02H965.6800000000001V1007.98C965.6800000000001 1009.83 966.3090000000001 1011.54 967.3620000000001 1012.89ZM989.911 1000.95C989.911 1001.48 989.482 1001.9100000000001 988.9549999999999 1001.9100000000001H930.045C929.5179999999999 1001.9100000000001 929.0889999999999 1001.4800000000001 929.0889999999999 1000.95V992.792H989.911ZM990 990H929L929.089 960.066C929.089 959.5360000000001 929.518 959.105 930.0450000000001 959.105H988.955C989.4820000000001 959.105 989.9110000000001 959.5360000000001 989.9110000000001 960.066V989.687ZM959.5 995.677C960.421 995.677 961.167 996.427 961.167 997.3530000000001C961.167 998.278 960.421 999.028 959.5 999.028C958.58 999.028 957.833 998.278 957.833 997.3530000000001C957.833 996.427 958.5799999999999 995.677 959.5 995.677Z " fill="#1774c4" fill-opacity="1" transform="matrix(1,0,0,1,-926,-927)"></path><path id="SvgjsPath1024" d="M983.218 944.151L989.534 943.361C990.409 943.258 991.01 942.4159999999999 990.838 941.557C990.684 940.767 989.9459999999999 940.234 989.156 940.337L982.8399999999999 941.127C981.9649999999999 941.231 981.3639999999999 942.072 981.536 942.9309999999999C981.6899999999999 943.722 982.429 944.2539999999999 983.218 944.151ZM956 988L961.318 986.037C962.914 985.35 965.54 984.147 968.0459999999999 982.7040000000001C969.7109999999999 981.9480000000001 971.4269999999999 981.0200000000001 972.611 979.989C976.662 976.485 973.761 973.9250000000001 973.761 973.9250000000001C975.2199999999999 970.695 972.525 969.1490000000001 972.525 969.1490000000001C973.4689999999999 965.6440000000001 970.2429999999999 964.9050000000001 970.2429999999999 964.9050000000001C970.2429999999999 964.9050000000001 970.414 962.397 968.1149999999999 961.8470000000001C966.1749999999998 961.383 963.4629999999999 963.0500000000001 961.9189999999999 964.2010000000001L958.1259999999999 960.1290000000001L961.3869999999998 958.3420000000001L960.6659999999998 957.0190000000001C964.8539999999998 955.5250000000001 972.0789999999998 953.6690000000001 978.8069999999998 955.4390000000001C979.2879999999998 956.195 980.2999999999998 956.4350000000001 981.0729999999998 955.8850000000001C981.7419999999997 955.4040000000001 981.8959999999997 954.4770000000001 981.5019999999997 953.7550000000001L977.0389999999998 945.6290000000001C978.4469999999998 943.9790000000002 978.7729999999998 941.5740000000002 977.6739999999998 939.5640000000001C976.5589999999997 937.537 974.3619999999997 936.523 972.2169999999998 936.8320000000001L967.7889999999998 928.7750000000001C967.3939999999998 928.07 966.5349999999997 927.6920000000001 965.7799999999997 928.0020000000001C964.9219999999998 928.345 964.5619999999998 929.3420000000001 964.9389999999997 930.1490000000001C962.8279999999997 936.7810000000001 957.3699999999998 941.8830000000002 953.8859999999997 944.6320000000001L953.1649999999997 943.3090000000001L944.3949999999998 948.1370000000001C942.6449999999998 949.099 942.0099999999998 951.2810000000001 942.9709999999998 953.033L943.7429999999998 954.442L942.7819999999998 954.975C942.1979999999999 955.301 941.9919999999998 956.023 942.3009999999998 956.607L944.4809999999998 960.558C944.8069999999998 961.143 945.5279999999998 961.349 946.1109999999998 961.039L947.0729999999998 960.507L947.7419999999997 961.727C948.7029999999997 963.4789999999999 950.8829999999997 964.115 952.6329999999997 963.153L953.4399999999997 962.706L956.4779999999997 966.039C953.2859999999997 967.259 951.7409999999998 971.966 951.7409999999998 971.966C951.5009999999997 972.842 951.5179999999998 973.684 951.5869999999998 974.337C951.6039999999998 974.492 951.6209999999998 974.646 951.6549999999997 974.7669999999999C951.6719999999998 974.9559999999999 951.6209999999998 975.2819999999999 951.5009999999997 975.66C951.2429999999997 976.5699999999999 950.6079999999997 977.326 949.7669999999997 977.79L932.9999999999997 988ZM950.986 959.699L946.42 951.367L951.6719999999999 948.481L956.2379999999999 956.813ZM983.098 927.418C982.463 926.816 981.433 926.868 980.867 927.555L976.8159999999999 932.4689999999999C976.3009999999999 933.087 976.353 933.9979999999999 976.9359999999999 934.5469999999999C977.5709999999999 935.1489999999999 978.6009999999999 935.0969999999999 979.1669999999999 934.41L983.2349999999999 929.496C983.733 928.8779999999999 983.6809999999999 927.967 983.098 927.418ZM979.906 938.396C980.3169999999999 939.135 981.2439999999999 939.409 981.982 938.997L987.457 935.991C988.195 935.578 988.47 934.65 988.058 933.912L988.0409999999999 933.8770000000001C987.6289999999999 933.139 986.7019999999999 932.864 985.9639999999999 933.2760000000001L980.4889999999999 936.283C979.7509999999999 936.695 979.4759999999999 937.623 979.8879999999999 938.361Z " fill="url(#SvgjsLinearGradient1025)" transform="matrix(1,0,0,1,-926,-927)"></path></svg>