<svg id="SvgjsSvg1028" xmlns="http://www.w3.org/2000/svg" version="1.1" xmlns:xlink="http://www.w3.org/1999/xlink" xmlns:svgjs="http://svgjs.com/svgjs" width="67" height="59" viewBox="0 0 67 59"><title>Shape 1</title><desc>Created with Avocode.</desc><defs id="SvgjsDefs1029"><linearGradient id="SvgjsLinearGradient1032" gradientUnits="userSpaceOnUse" x1="1358.5" y1="977.995" x2="1358.5" y2="961.013617606594"><stop id="SvgjsStop1033" stop-opacity="1" stop-color="#f15f00" offset="0"></stop><stop id="SvgjsStop1034" stop-opacity="1" stop-color="#ff0e0c" offset="1"></stop></linearGradient><linearGradient id="SvgjsLinearGradient1036" gradientUnits="userSpaceOnUse" x1="1339.5000000000005" y1="999.993" x2="1339.5000000000005" y2="976.019495123908"><stop id="SvgjsStop1037" stop-opacity="1" stop-color="#f15f00" offset="0"></stop><stop id="SvgjsStop1038" stop-opacity="1" stop-color="#ff0e0c" offset="1"></stop></linearGradient></defs><path id="SvgjsPath1030" d="M1373 986.493C1373 970.2320000000001 1357.97 957 1339.5 957C1321.02 957 1306 970.232 1306 986.493C1306 992.918 1308.41 999.2070000000001 1312.8 1004.3100000000001C1311.8799999999999 1006.33 1310.54 1007.9200000000001 1308.79 1009.0600000000001C1307.8899999999999 1009.6400000000001 1307.45 1010.71 1307.68 1011.7600000000001C1307.92 1012.7900000000001 1308.75 1013.5600000000001 1309.8 1013.7100000000002C1310.86 1013.8600000000001 1311.94 1013.9300000000002 1313 1013.9300000000002C1316.4 1013.9300000000002 1319.49 1013.2000000000002 1322.21 1011.7700000000002C1327.42 1014.5400000000002 1333.3700000000001 1016.0000000000002 1339.49 1016.0000000000002C1357.98 1015.9900000000002 1373 1002.7500000000002 1373 986.4930000000003ZM1339.5 1012.64C1333.63 1012.64 1327.94 1011.17 1323.03 1008.39C1322.77 1008.24 1322.48 1008.17 1322.2 1008.17C1321.9 1008.17 1321.5900000000001 1008.25 1321.3300000000002 1008.4C1318.7800000000002 1009.9599999999999 1315.7 1010.6899999999999 1312.3100000000002 1010.5699999999999C1314.0700000000002 1008.9899999999999 1315.41 1006.9799999999999 1316.3100000000002 1004.55C1316.5300000000002 1003.9699999999999 1316.4 1003.3 1315.9700000000003 1002.8399999999999C1311.6400000000003 998.1569999999999 1309.3500000000004 992.5089999999999 1309.3500000000004 986.4929999999999C1309.3500000000004 972.074 1322.8800000000003 960.342 1339.5000000000005 960.342C1356.1200000000003 960.342 1369.6500000000005 972.074 1369.6500000000005 986.4929999999999C1369.6500000000005 1000.91 1356.1300000000006 1012.64 1339.5000000000005 1012.64Z " fill="#1774c4" fill-opacity="1" transform="matrix(1,0,0,1,-1306,-957)"></path><path id="SvgjsPath1031" d="M1358.5 977.995C1339.96 967.898 1353.37 955.344 1358.5 963.799C1363.63 955.3439999999999 1377.04 967.898 1358.5 977.995Z " fill="url(#SvgjsLinearGradient1032)" transform="matrix(1,0,0,1,-1306,-957)"></path><path id="SvgjsPath1035" d="M1339.5 999.993C1313.15 985.739 1332.21 968.0150000000001 1339.5 979.952C1346.79 968.015 1365.85 985.739 1339.5 999.993Z " fill="url(#SvgjsLinearGradient1036)" transform="matrix(1,0,0,1,-1306,-957)"></path></svg>