<svg id="SvgjsSvg1011" xmlns="http://www.w3.org/2000/svg" version="1.1" xmlns:xlink="http://www.w3.org/1999/xlink" xmlns:svgjs="http://svgjs.com/svgjs" width="2675" height="94" viewBox="0 0 2675 94"><title>Rectangle 16 copy 10</title><desc>Created with Avocode.</desc><defs id="SvgjsDefs1012"></defs><path id="SvgjsPath1013" d="M-57.9999 649.331L-11.3309 696L-57.9999 742.669L-104.669 696ZM-28.9999 649.331L17.669 696L-28.9999 742.669L-75.669 696ZM0 649.331L46.669 696L0 742.669L-46.669 696ZM28.9999 649.331L75.669 696L28.999899999999997 742.669L-17.669000000000004 696ZM57.9999 649.331L104.669 696L57.9999 742.669L11.3309 696ZM86.9999 649.331L133.66899999999998 696L86.99989999999998 742.669L40.330899999999986 696ZM116 649.331L162.66899999999998 696L115.99999999999999 742.669L69.33089999999999 696ZM145 649.331L191.66899999999998 696L145 742.669L98.33080000000001 696ZM174 649.331L220.66899999999998 696L174 742.669L127.331 696ZM203 649.331L249.66899999999998 696L203 742.669L156.33100000000002 696ZM232 649.331L278.669 696L232 742.669L185.33100000000002 696ZM261 649.331L307.669 696L261 742.669L214.33100000000002 696ZM290 649.331L336.669 696L290 742.669L243.33100000000002 696ZM319 649.331L365.669 696L319 742.669L272.331 696ZM348 649.331L394.669 696L348 742.669L301.331 696ZM377 649.331L423.669 696L377 742.669L330.331 696ZM406 649.331L452.669 696L406 742.669L359.331 696ZM435 649.331L481.669 696L435 742.669L388.331 696ZM464 649.331L510.669 696L464 742.669L417.331 696ZM493 649.331L539.669 696L493 742.669L446.331 696ZM522 649.331L568.669 696L522 742.669L475.331 696ZM551 649.331L597.669 696L551 742.669L504.331 696ZM580 649.331L626.669 696L580 742.669L533.331 696ZM609 649.331L655.669 696L609 742.669L562.331 696ZM638 649.331L684.669 696L638 742.669L591.331 696ZM667 649.331L713.669 696L667 742.669L620.331 696ZM696 649.331L742.669 696L696 742.669L649.331 696ZM725 649.331L771.669 696L725 742.669L678.331 696ZM754 649.331L800.669 696L754 742.669L707.331 696ZM783 649.331L829.669 696L783 742.669L736.331 696ZM812 649.331L858.669 696L812 742.669L765.331 696ZM841 649.331L887.669 696L841 742.669L794.331 696ZM870 649.331L916.669 696L870 742.669L823.331 696ZM899 649.331L945.669 696L899 742.669L852.331 696ZM928 649.331L974.669 696L928 742.669L881.331 696ZM957 649.331L1003.67 696L957 742.669L910.331 696ZM986 649.331L1032.67 696L986.0000000000001 742.669L939.3310000000001 696ZM1015 649.331L1061.67 696L1015.0000000000001 742.669L968.3310000000001 696ZM1044 649.331L1090.67 696L1044 742.669L997.331 696ZM1073 649.331L1119.67 696L1073 742.669L1026.33 696ZM1102 649.331L1148.67 696L1102 742.669L1055.33 696ZM1131 649.331L1177.67 696L1131 742.669L1084.33 696ZM1160 649.331L1206.67 696L1160 742.669L1113.33 696ZM1189 649.331L1235.67 696L1189 742.669L1142.33 696ZM1218 649.331L1264.67 696L1218 742.669L1171.33 696ZM1247 649.331L1293.67 696L1247 742.669L1200.33 696ZM1276 649.331L1322.67 696L1276 742.669L1229.33 696ZM1305 649.331L1351.67 696L1305 742.669L1258.33 696ZM1334 649.331L1380.67 696L1334 742.669L1287.33 696ZM1363 649.331L1409.67 696L1363 742.669L1316.33 696ZM1392 649.331L1438.67 696L1392 742.669L1345.33 696ZM1421 649.331L1467.67 696L1421 742.669L1374.33 696ZM1450 649.331L1496.67 696L1450 742.669L1403.33 696ZM1479 649.331L1525.67 696L1479 742.669L1432.33 696ZM1508 649.331L1554.67 696L1508 742.669L1461.33 696ZM1537 649.331L1583.67 696L1537 742.669L1490.33 696ZM1566 649.331L1612.67 696L1566 742.669L1519.33 696ZM1595 649.331L1641.67 696L1595 742.669L1548.33 696ZM1624 649.331L1670.67 696L1624 742.669L1577.33 696ZM1653 649.331L1699.67 696L1653 742.669L1606.33 696ZM1682 649.331L1728.67 696L1682 742.669L1635.33 696ZM1711 649.331L1757.67 696L1711 742.669L1664.33 696ZM1740 649.331L1786.67 696L1740 742.669L1693.33 696ZM1769 649.331L1815.67 696L1769 742.669L1722.33 696ZM1798 649.331L1844.67 696L1798 742.669L1751.33 696ZM1827 649.331L1873.67 696L1827 742.669L1780.33 696ZM1856 649.331L1902.67 696L1856 742.669L1809.33 696ZM1885 649.331L1931.67 696L1885 742.669L1838.33 696ZM1914 649.331L1960.67 696L1914 742.669L1867.33 696ZM1943 649.331L1989.67 696L1943 742.669L1896.33 696ZM1972 649.331L2018.67 696L1972 742.669L1925.33 696ZM2001 649.331L2047.67 696L2001 742.669L1954.33 696ZM2030 649.331L2076.67 696L2030 742.669L1983.33 696ZM2059 649.331L2105.67 696L2059 742.669L2012.33 696ZM2088 649.331L2134.67 696L2088 742.669L2041.33 696ZM2117 649.331L2163.67 696L2117 742.669L2070.33 696ZM2146 649.331L2192.67 696L2146 742.669L2099.33 696ZM2175 649.331L2221.67 696L2175 742.669L2128.33 696ZM2204 649.331L2250.67 696L2204 742.669L2157.33 696ZM2233 649.331L2279.67 696L2233 742.669L2186.33 696ZM2262 649.331L2308.67 696L2262 742.669L2215.33 696ZM2291 649.331L2337.67 696L2291 742.669L2244.33 696ZM2320 649.331L2366.67 696L2320 742.669L2273.33 696ZM2349 649.331L2395.67 696L2349 742.669L2302.33 696ZM2378 649.331L2424.67 696L2378 742.669L2331.33 696ZM2407 649.331L2453.67 696L2407 742.669L2360.33 696ZM2436 649.331L2482.67 696L2436 742.669L2389.33 696ZM2465 649.331L2511.67 696L2465 742.669L2418.33 696ZM2494 649.331L2540.67 696L2494 742.669L2447.33 696ZM2523 649.331L2569.67 696L2523 742.669L2476.33 696Z " fill="#ffffff" fill-opacity="1" transform="matrix(1,0,0,1,105,-649)"></path></svg>