<svg id="SvgjsSvg1045" xmlns="http://www.w3.org/2000/svg" version="1.1" xmlns:xlink="http://www.w3.org/1999/xlink" xmlns:svgjs="http://svgjs.com/svgjs" width="36" height="36" viewBox="0 0 36 36"><title>Прямоугольник 1 копия 2</title><desc>Created with Avocode.</desc><defs id="SvgjsDefs1046"></defs><path id="SvgjsPath1047" d="M447 1620V1584H483V1620Z " fill="#7a6b67" fill-opacity="1" transform="matrix(1,0,0,1,-447,-1584)"></path><path id="SvgjsPath1048" d="M447 1620V1584H483V1620Z " fill="#496194" fill-opacity="1" transform="matrix(1,0,0,1,-447,-1584)"></path><path id="SvgjsPath1049" d="M469.283 1594.44C468.40200000000004 1594.26 467.725 1594.1200000000001 466.79900000000004 1594.1200000000001C464.134 1594.1200000000001 463.07300000000004 1595.39 463.07300000000004 1597.66V1599.3200000000002H461.40200000000004V1601.9900000000002H463.07300000000004V1610.1400000000003H466.32500000000005V1601.9900000000002H468.696L468.92100000000005 1599.3200000000002H466.32500000000005V1598.0200000000002C466.32500000000005 1597.3000000000002 466.39200000000005 1596.8400000000001 467.43100000000004 1596.8400000000001C467.81500000000005 1596.8400000000001 468.42500000000007 1596.91 468.87600000000003 1597.0000000000002Z " fill="#ffffff" fill-opacity="1" transform="matrix(1,0,0,1,-447,-1584)"></path></svg>