<svg id="SvgjsSvg1008" xmlns="http://www.w3.org/2000/svg" version="1.1" xmlns:xlink="http://www.w3.org/1999/xlink" xmlns:svgjs="http://svgjs.com/svgjs" width="18" height="16" viewBox="0 0 18 16"><title>Forma 1</title><desc>Created with Avocode.</desc><defs id="SvgjsDefs1009"></defs><path id="SvgjsPath1010" d="M1430.76 120.566C1430.54 120.789 1430.54 121.151 1430.76 121.37400000000001C1430.98 121.59700000000001 1431.33 121.59700000000001 1431.55 121.37400000000001L1435.43 117.43200000000002C1435.55 117.31300000000002 1435.6000000000001 117.15500000000002 1435.5900000000001 116.99900000000001C1435.6000000000001 116.843 1435.5500000000002 116.686 1435.43 116.56700000000001L1431.55 112.625C1431.33 112.402 1430.97 112.402 1430.76 112.625C1430.54 112.849 1430.54 113.21 1430.76 113.433L1433.7 116.42800000000001H1421.56C1421.25 116.42800000000001 1421 116.68400000000001 1421 117.00000000000001C1421 117.31500000000001 1421.25 117.57100000000001 1421.56 117.57100000000001H1433.7ZM1439 111.287V122.71300000000001C1439 123.97500000000001 1437.99 124.998 1436.75 124.998H1425.5C1424.26 124.998 1423.25 123.97500000000001 1423.25 122.71300000000001V120.42800000000001H1424.38V122.71300000000001C1424.38 123.34400000000001 1424.88 123.85600000000001 1425.5 123.85600000000001H1436.75C1437.37 123.85600000000001 1437.87 123.34400000000001 1437.87 122.71300000000001V111.287C1437.87 110.656 1437.37 110.144 1436.75 110.144H1425.5C1424.88 110.144 1424.38 110.656 1424.38 111.287V113.572H1423.25V111.287C1423.25 110.024 1424.26 109.001 1425.5 109.001H1436.75C1437.99 109.001 1439 110.024 1439 111.287Z " fill="#ffffff" fill-opacity="1" transform="matrix(1,0,0,1,-1421,-109)"></path></svg>