<svg id="SvgjsSvg1014" xmlns="http://www.w3.org/2000/svg" version="1.1" xmlns:xlink="http://www.w3.org/1999/xlink" xmlns:svgjs="http://svgjs.com/svgjs" width="78" height="89" viewBox="0 0 78 89"><title>Forma 1</title><desc>Created with Avocode.</desc><defs id="SvgjsDefs1015"><linearGradient id="SvgjsLinearGradient1018" gradientUnits="userSpaceOnUse" x1="600.00012695859" y1="995" x2="600.00012695859" y2="927.0002219598997"><stop id="SvgjsStop1019" stop-opacity="1" stop-color="#f15f00" offset="0"></stop><stop id="SvgjsStop1020" stop-opacity="1" stop-color="#ff0e0c" offset="1"></stop></linearGradient></defs><path id="SvgjsPath1016" d="M609.65 972.938H597.6379999999999L588.5699999999999 963.971C587.9409999999999 963.349 587.0889999999999 963 586.1999999999999 963H572.8C571.911 963 571.059 963.349 570.4319999999999 963.971L561.3619999999999 972.938H549.3499999999999C547.4999999999999 972.938 545.9999999999999 974.42 545.9999999999999 976.25V1012.69C545.9999999999999 1014.5200000000001 547.4999999999999 1016 549.3499999999999 1016H609.6499999999999C611.4999999999999 1016 612.9999999999999 1014.52 612.9999999999999 1012.69V976.25C612.9999999999999 974.42 611.4999999999999 972.938 609.6499999999999 972.938ZM610 1013H549V976H563L573 966H586L596 976H610ZM574.002 997.668L564.997 982.722C563.108 985.515 562.0039999999999 988.88 562.0039999999999 992.499C562.0039999999999 994.298 562.2769999999999 996.033 562.7839999999999 997.668ZM577.786 985.081H595.338C593.084 980.2860000000001 588.716 976.678 583.442 975.458ZM572.151 990.498L581.207 975.0880000000001C580.645 975.0330000000001 580.075 975.0040000000001 579.499 975.0040000000001C574.283 975.0040000000001 569.596 977.3010000000002 566.388 980.9340000000001ZM575.799 1009.44L581.3389999999999 999.782H563.598C565.925 1004.84 570.5949999999999 1008.61 576.212 1009.6800000000001ZM584.969 987.195L593.812 1002.5400000000001C595.814 999.696 596.994 996.234 596.994 992.499C596.994 990.6510000000001 596.7040000000001 988.869 596.1700000000001 987.195ZM586.771 994.559L577.962 1009.92C578.4689999999999 1009.9699999999999 578.981 1009.99 579.499 1009.99C584.597 1009.99 589.191 1007.8 592.3910000000001 1004.3100000000001Z " fill="#1774c4" fill-opacity="1" transform="matrix(1,0,0,1,-546,-927)"></path><path id="SvgjsPath1017" d="M607.015 928.839C605.405 930.6930000000001 603.723 933.282 602.577 936.8050000000001C602.577 936.8050000000001 601.401 933.4290000000001 603.545 930.091C601.5279999999999 931.91 598.9639999999999 934.992 597.3969999999999 939.809C597.3969999999999 939.809 595.9549999999999 935.641 599.223 931.985C599.161 932.017 599.0989999999999 932.048 599.0369999999999 932.0790000000001C593.5989999999999 934.845 590.0719999999999 940.3530000000001 589.8509999999999 946.4390000000001C589.8509999999999 946.4430000000001 589.8509999999999 946.4480000000001 589.8509999999999 946.4530000000001C589.8509999999999 946.4530000000001 587.3499999999999 942.8960000000001 589.4009999999998 938.5300000000001C589.3999999999999 938.5310000000001 589.3989999999999 938.532 589.3979999999998 938.5330000000001C587.0779999999997 940.5380000000001 585.4729999999998 943.2040000000002 584.7769999999998 946.1860000000001C584.4599999999998 947.5480000000001 584.2409999999999 949.0650000000002 584.1809999999998 950.7410000000001C584.1809999999998 950.7410000000001 582.6149999999998 948.5020000000001 582.9809999999998 945.4030000000001C582.9789999999998 945.4050000000001 582.9769999999997 945.4070000000002 582.9759999999998 945.4090000000001C581.7959999999998 947.0060000000001 580.7839999999998 948.5850000000002 579.9249999999997 950.1350000000001C578.5609999999997 952.5960000000001 578.5519999999997 955.5980000000001 579.9069999999997 958.065V958.065C579.9069999999997 958.065 578.5519999999997 957.445 577.3269999999997 955.9860000000001C574.8909999999996 963.3250000000002 576.0049999999997 969.4220000000001 579.0779999999996 972.4900000000001C579.3789999999997 972.7890000000001 579.7229999999996 973.0760000000001 580.0939999999996 973.3470000000001C577.8079999999997 980.5160000000001 577.0949999999996 987.3310000000001 579.2409999999996 995.0000000000001C581.8039999999996 982.2330000000001 582.5829999999996 971.6870000000001 597.9099999999996 949.9310000000002C593.5749999999996 957.7360000000001 589.4569999999997 966.6580000000001 586.7619999999996 975.5670000000001C592.4529999999996 975.8290000000001 599.7829999999996 972.6680000000001 605.9189999999996 961.8440000000002C613.0069999999996 949.3390000000002 610.2309999999997 935.3500000000001 623.9999999999997 927.6650000000002C619.6199999999997 926.4890000000001 613.4719999999996 926.8690000000001 607.0149999999996 928.8390000000002Z " fill="url(#SvgjsLinearGradient1018)" transform="matrix(1,0,0,1,-546,-927)"></path></svg>