<svg id="SvgjsSvg1000" xmlns="http://www.w3.org/2000/svg" version="1.1" xmlns:xlink="http://www.w3.org/1999/xlink" xmlns:svgjs="http://svgjs.com/svgjs" width="17" height="18" viewBox="0 0 17 18"><title>Shape 1</title><desc>Created with Avocode.</desc><defs id="SvgjsDefs1001"></defs><path id="SvgjsPath1007" d="M1242.44 117.699C1242.45 117.699 1242.47 117.699 1242.49 117.699C1242.5 117.699 1242.51 117.699 1242.52 117.699C1242.53 117.699 1242.54 117.699 1242.55 117.699C1243.62 117.67999999999999 1244.49 117.29599999999999 1245.1299999999999 116.562C1246.53 114.944 1246.3 112.17099999999999 1246.27 111.90599999999999C1246.18 109.91999999999999 1245.26 108.969 1244.5 108.526C1243.94 108.194 1243.28 108.015 1242.54 108H1242.48C1242.07 108 1241.27 108.067 1240.51 108.511C1239.74 108.954 1238.81 109.905 1238.72 111.90599999999999C1238.69 112.17099999999999 1238.46 114.94399999999999 1239.8700000000001 116.562C1240.5000000000002 117.29599999999999 1241.3700000000001 117.67999999999999 1242.44 117.699ZM1239.69 112C1239.69 111.988 1239.7 111.977 1239.7 111.97C1239.82 109.297 1241.68 109.01 1242.47 109.01H1242.49C1242.49 109.01 1242.51 109.01 1242.52 109.01C1243.5 109.033 1245.18 109.44300000000001 1245.29 111.97C1245.29 111.981 1245.29 111.992 1245.3 112C1245.3 112.026 1245.55 114.56 1244.3899999999999 115.895C1243.9299999999998 116.42399999999999 1243.32 116.685 1242.5099999999998 116.692C1242.5099999999998 116.692 1242.4999999999998 116.692 1242.4899999999998 116.692H1242.4799999999998C1241.6699999999998 116.68499999999999 1241.0599999999997 116.42399999999999 1240.5999999999997 115.895C1239.4399999999996 114.568 1239.6899999999996 112.02199999999999 1239.6899999999996 112ZM1250 122.299C1250 122.295 1250 122.29100000000001 1250 122.287C1250 122.25800000000001 1250 122.22800000000001 1250 122.194C1249.97 121.456 1249.93 119.73 1248.34 119.179C1248.33 119.175 1248.32 119.171 1248.3 119.167C1246.6599999999999 118.739 1245.29 117.77 1245.27 117.758C1245.05 117.598 1244.74 117.654 1244.59 117.881C1244.4299999999998 118.109 1244.48 118.422 1244.7099999999998 118.582C1244.7699999999998 118.627 1246.2199999999998 119.65899999999999 1248.0399999999997 120.137C1248.8899999999996 120.446 1248.9899999999998 121.374 1249.0099999999998 122.224C1249.0099999999998 122.25800000000001 1249.0099999999998 122.287 1249.0199999999998 122.31700000000001C1249.0199999999998 122.653 1248.9999999999998 123.171 1248.9399999999998 123.46900000000001C1248.35 123.81200000000001 1246.0299999999997 124.99700000000001 1242.4999999999998 124.99700000000001C1238.9899999999998 124.99700000000001 1236.6599999999999 123.80800000000002 1236.0599999999997 123.46500000000002C1235.9999999999998 123.16700000000002 1235.9799999999998 122.64900000000002 1235.9799999999998 122.31300000000002C1235.9799999999998 122.28400000000002 1235.9899999999998 122.25400000000002 1235.9899999999998 122.22000000000001C1236.0099999999998 121.37000000000002 1236.1099999999997 120.44200000000001 1236.9599999999998 120.13300000000001C1238.7799999999997 119.656 1240.2299999999998 118.62 1240.2899999999997 118.57900000000001C1240.5199999999998 118.418 1240.5699999999997 118.105 1240.4099999999996 117.87800000000001C1240.2599999999995 117.65000000000002 1239.9499999999996 117.59400000000001 1239.7299999999996 117.75500000000001C1239.7099999999996 117.766 1238.3499999999995 118.73500000000001 1236.6999999999996 119.16400000000002C1236.6799999999996 119.16700000000002 1236.6699999999996 119.17100000000002 1236.6599999999996 119.17500000000001C1235.0699999999997 119.73000000000002 1235.0299999999995 121.45600000000002 1234.9999999999995 122.19000000000001C1234.9999999999995 122.22400000000002 1234.9999999999995 122.254 1234.9999999999995 122.284C1234.9999999999995 122.287 1234.9999999999995 122.29100000000001 1234.9999999999995 122.295C1234.9999999999995 122.489 1234.9899999999996 123.48400000000001 1235.1899999999996 123.983C1235.2199999999996 124.08 1235.2899999999995 124.162 1235.3799999999997 124.218C1235.4899999999996 124.293 1238.1099999999997 126 1242.5099999999998 126C1246.8999999999999 126 1249.5199999999998 124.289 1249.6299999999997 124.218C1249.7199999999996 124.162 1249.7899999999997 124.08 1249.8199999999997 123.983C1250.0099999999998 123.488 1249.9999999999998 122.492 1249.9999999999998 122.299Z " fill="#ffffff" fill-opacity="1" transform="matrix(1,0,0,1,-1234,-108)"></path></svg>