<svg id="SvgjsSvg1039" xmlns="http://www.w3.org/2000/svg" version="1.1" xmlns:xlink="http://www.w3.org/1999/xlink" xmlns:svgjs="http://svgjs.com/svgjs" width="36" height="36" viewBox="0 0 36 36"><title>Прямоугольник 1</title><desc>Created with Avocode.</desc><defs id="SvgjsDefs1040"></defs><path id="SvgjsPath1041" d="M405 1620V1584H441V1620Z " fill="#7a6b67" fill-opacity="1" transform="matrix(1,0,0,1,-405,-1584)"></path><path id="SvgjsPath1042" d="M405 1620V1584H441V1620Z " fill="#6996c7" fill-opacity="1" transform="matrix(1,0,0,1,-405,-1584)"></path><path id="SvgjsPath1043" d="M422.524 1608.01H423.637C423.637 1608.01 423.973 1607.98 424.145 1607.79C424.303 1607.62 424.29699999999997 1607.3 424.29699999999997 1607.3C424.29699999999997 1607.3 424.27599999999995 1605.79 424.969 1605.56C425.652 1605.35 426.53 1607.02 427.459 1607.6699999999998C428.163 1608.1599999999999 428.697 1608.05 428.697 1608.05L431.184 1608.01C431.184 1608.01 432.485 1607.93 431.86800000000005 1606.9C431.81700000000006 1606.8200000000002 431.50900000000007 1606.14 430.01900000000006 1604.74C428.45900000000006 1603.28 428.66800000000006 1603.51 430.5470000000001 1600.98C431.6910000000001 1599.44 432.1480000000001 1598.5 432.0050000000001 1598.1C431.8690000000001 1597.7099999999998 431.0270000000001 1597.81 431.0270000000001 1597.81L428.2280000000001 1597.83C428.2280000000001 1597.83 428.0200000000001 1597.8 427.8660000000001 1597.8999999999999C427.7160000000001 1597.9899999999998 427.6190000000001 1598.1999999999998 427.6190000000001 1598.1999999999998C427.6190000000001 1598.1999999999998 427.1760000000001 1599.3899999999999 426.5850000000001 1600.4099999999999C425.3380000000001 1602.55 424.8400000000001 1602.6599999999999 424.6360000000001 1602.5299999999997C424.1620000000001 1602.2199999999998 424.2800000000001 1601.2799999999997 424.2800000000001 1600.6199999999997C424.2800000000001 1598.5499999999997 424.59100000000007 1597.6799999999996 423.6740000000001 1597.4599999999996C423.3700000000001 1597.3799999999997 423.1460000000001 1597.3299999999995 422.3670000000001 1597.3299999999995C421.36800000000005 1597.3099999999995 420.5230000000001 1597.3299999999995 420.0440000000001 1597.5699999999995C419.7250000000001 1597.7199999999996 419.4800000000001 1598.0699999999995 419.6290000000001 1598.0899999999995C419.81500000000005 1598.1199999999994 420.2340000000001 1598.2099999999994 420.4560000000001 1598.5099999999995C420.74300000000005 1598.9099999999996 420.73300000000006 1599.7999999999995 420.73300000000006 1599.7999999999995C420.73300000000006 1599.7999999999995 420.8980000000001 1602.2399999999996 420.34800000000007 1602.5399999999995C419.9700000000001 1602.7499999999995 419.4530000000001 1602.3199999999995 418.34100000000007 1600.3799999999994C417.77200000000005 1599.3899999999994 417.34200000000004 1598.2899999999995 417.34200000000004 1598.2899999999995C417.34200000000004 1598.2899999999995 417.259 1598.0799999999995 417.11100000000005 1597.9699999999996C416.93100000000004 1597.8399999999995 416.68100000000004 1597.7999999999995 416.68100000000004 1597.7999999999995L414.02000000000004 1597.8099999999995C414.02000000000004 1597.8099999999995 413.62100000000004 1597.8299999999995 413.47400000000005 1597.9999999999995C413.34400000000005 1598.1599999999996 413.46400000000006 1598.4799999999996 413.46400000000006 1598.4799999999996C413.46400000000006 1598.4799999999996 415.54600000000005 1603.4099999999996 417.90500000000003 1605.8899999999996C420.06800000000004 1608.1599999999996 422.524 1608.0099999999995 422.524 1608.0099999999995Z " fill="#ffffff" fill-opacity="1" transform="matrix(1,0,0,1,-405,-1584)"></path><path id="SvgjsPath1044" d="M422.524 1608.01H423.637C423.637 1608.01 423.973 1607.98 424.145 1607.79C424.303 1607.62 424.29699999999997 1607.3 424.29699999999997 1607.3C424.29699999999997 1607.3 424.27599999999995 1605.79 424.969 1605.56C425.652 1605.35 426.53 1607.02 427.459 1607.6699999999998C428.163 1608.1599999999999 428.697 1608.05 428.697 1608.05L431.184 1608.01C431.184 1608.01 432.485 1607.93 431.86800000000005 1606.9C431.81700000000006 1606.8200000000002 431.50900000000007 1606.14 430.01900000000006 1604.74C428.45900000000006 1603.28 428.66800000000006 1603.51 430.5470000000001 1600.98C431.6910000000001 1599.44 432.1480000000001 1598.5 432.0050000000001 1598.1C431.8690000000001 1597.7099999999998 431.0270000000001 1597.81 431.0270000000001 1597.81L428.2280000000001 1597.83C428.2280000000001 1597.83 428.0200000000001 1597.8 427.8660000000001 1597.8999999999999C427.7160000000001 1597.9899999999998 427.6190000000001 1598.1999999999998 427.6190000000001 1598.1999999999998C427.6190000000001 1598.1999999999998 427.1760000000001 1599.3899999999999 426.5850000000001 1600.4099999999999C425.3380000000001 1602.55 424.8400000000001 1602.6599999999999 424.6360000000001 1602.5299999999997C424.1620000000001 1602.2199999999998 424.2800000000001 1601.2799999999997 424.2800000000001 1600.6199999999997C424.2800000000001 1598.5499999999997 424.59100000000007 1597.6799999999996 423.6740000000001 1597.4599999999996C423.3700000000001 1597.3799999999997 423.1460000000001 1597.3299999999995 422.3670000000001 1597.3299999999995C421.36800000000005 1597.3099999999995 420.5230000000001 1597.3299999999995 420.0440000000001 1597.5699999999995C419.7250000000001 1597.7199999999996 419.4800000000001 1598.0699999999995 419.6290000000001 1598.0899999999995C419.81500000000005 1598.1199999999994 420.2340000000001 1598.2099999999994 420.4560000000001 1598.5099999999995C420.74300000000005 1598.9099999999996 420.73300000000006 1599.7999999999995 420.73300000000006 1599.7999999999995C420.73300000000006 1599.7999999999995 420.8980000000001 1602.2399999999996 420.34800000000007 1602.5399999999995C419.9700000000001 1602.7499999999995 419.4530000000001 1602.3199999999995 418.34100000000007 1600.3799999999994C417.77200000000005 1599.3899999999994 417.34200000000004 1598.2899999999995 417.34200000000004 1598.2899999999995C417.34200000000004 1598.2899999999995 417.259 1598.0799999999995 417.11100000000005 1597.9699999999996C416.93100000000004 1597.8399999999995 416.68100000000004 1597.7999999999995 416.68100000000004 1597.7999999999995L414.02000000000004 1597.8099999999995C414.02000000000004 1597.8099999999995 413.62100000000004 1597.8299999999995 413.47400000000005 1597.9999999999995C413.34400000000005 1598.1599999999996 413.46400000000006 1598.4799999999996 413.46400000000006 1598.4799999999996C413.46400000000006 1598.4799999999996 415.54600000000005 1603.4099999999996 417.90500000000003 1605.8899999999996C420.06800000000004 1608.1599999999996 422.524 1608.0099999999995 422.524 1608.0099999999995Z " fill="#ffffff" fill-opacity="1" transform="matrix(1,0,0,1,-405,-1584)"></path></svg>